<svg width="32" height="32" viewBox="0 0 32 32" xmlns="http://www.w3.org/2000/svg"><title>next day</title><g fill="#010002" fill-rule="evenodd"><path d="M15 29C7.832 29 2 23.168 2 16S7.832 3 15 3s13 5.832 13 13c0 .41-.332.743-.743.743-.41 0-.744-.332-.744-.743 0-6.35-5.165-11.515-11.514-11.515C8.65 4.485 3.483 9.65 3.483 16c0 6.35 5.165 11.514 11.515 11.514 4.06 0 7.866-2.177 9.93-5.682.208-.354.663-.47 1.016-.262.354.207.47.663.264 1.017C23.882 26.542 19.586 29 15 29z"/><path d="M27.31 17c-.127 0-.255-.035-.37-.107l-4.58-2.846c-.348-.216-.464-.688-.258-1.054.205-.365.653-.487 1-.27l3.997 2.483 2.57-3.877c.232-.35.687-.434 1.017-.192.33.243.412.722.182 1.07l-2.96 4.462c-.143.214-.37.33-.6.33z"/></g></svg>