<svg width="32" height="32" viewBox="0 0 32 32" xmlns="http://www.w3.org/2000/svg"><title>prev day copy</title><g fill="#010002" fill-rule="evenodd"><path d="M17 29c7.168 0 13-5.832 13-13S24.168 3 17 3 4 8.832 4 16c0 .41.332.743.743.743.41 0 .744-.332.744-.743C5.487 9.65 10.652 4.485 17 4.485c6.35 0 11.516 5.166 11.516 11.515 0 6.35-5.165 11.514-11.515 11.514-4.06 0-7.866-2.177-9.93-5.682-.208-.354-.663-.47-1.016-.262-.354.207-.47.663-.264 1.017C8.118 26.542 12.414 29 17 29z"/><path d="M4.69 17c.127 0 .255-.035.37-.107l4.58-2.846c.348-.216.464-.688.258-1.054-.205-.365-.653-.487-1-.27L4.9 15.206 2.33 11.33c-.232-.35-.687-.434-1.017-.192-.33.243-.412.722-.182 1.07l2.96 4.462c.143.214.37.33.6.33z"/></g></svg>